<svg width="24" height="24" viewBox="0 0 24 24" fill="none" xmlns="http://www.w3.org/2000/svg">
<path d="M16.5 6C16.5 7.19347 16.0259 8.33807 15.182 9.18198C14.3381 10.0259 13.1935 10.5 12 10.5C10.8065 10.5 9.66193 10.0259 8.81802 9.18198C7.97411 8.33807 7.5 7.19347 7.5 6C7.5 4.80653 7.97411 3.66193 8.81802 2.81802C9.66193 1.97411 10.8065 1.5 12 1.5C13.1935 1.5 14.3381 1.97411 15.182 2.81802C16.0259 3.66193 16.5 4.80653 16.5 6Z" fill="black"/>
<path d="M11.25 6H12.75V19.5C12.75 19.6989 12.671 19.8897 12.5303 20.0303C12.3897 20.171 12.1989 20.25 12 20.25C11.8011 20.25 11.6103 20.171 11.4697 20.0303C11.329 19.8897 11.25 19.6989 11.25 19.5V6Z" fill="black"/>
<path fill-rule="evenodd" clip-rule="evenodd" d="M9.7335 18.1425C9.77537 18.3368 9.73838 18.5399 9.63066 18.7069C9.52293 18.874 9.35329 18.9915 9.159 19.0335C8.3115 19.218 7.6545 19.4715 7.23 19.7415C6.777 20.0295 6.75 20.223 6.75 20.25C6.75 20.2695 6.7575 20.3775 6.969 20.565C7.179 20.751 7.527 20.955 8.0205 21.138C9.003 21.507 10.41 21.75 12 21.75C13.59 21.75 14.997 21.507 15.9795 21.138C16.473 20.9535 16.8195 20.751 17.031 20.565C17.241 20.3775 17.25 20.2695 17.25 20.25C17.25 20.223 17.223 20.0295 16.77 19.7415C16.3455 19.4715 15.6885 19.2165 14.841 19.0335C14.7429 19.0146 14.6495 18.9762 14.5664 18.9207C14.4833 18.8651 14.4122 18.7936 14.3571 18.7101C14.3021 18.6267 14.2643 18.5331 14.2459 18.4349C14.2276 18.3367 14.229 18.2357 14.2502 18.1381C14.2714 18.0404 14.3119 17.948 14.3693 17.8662C14.4268 17.7844 14.5 17.7149 14.5846 17.6618C14.6693 17.6087 14.7637 17.573 14.8624 17.5569C14.961 17.5408 15.0618 17.5446 15.159 17.568C16.104 17.7735 16.9485 18.078 17.574 18.477C18.174 18.8565 18.75 19.4445 18.75 20.25C18.75 20.853 18.4215 21.336 18.0255 21.687C17.6295 22.0395 17.0985 22.3215 16.506 22.542C15.3165 22.989 13.7235 23.25 12 23.25C10.2765 23.25 8.685 22.989 7.494 22.5435C6.9015 22.3215 6.3705 22.0395 5.9745 21.687C5.5785 21.336 5.25 20.853 5.25 20.25C5.25 19.4445 5.826 18.8565 6.4245 18.477C7.0515 18.078 7.8945 17.772 8.841 17.568C8.93733 17.5471 9.03684 17.5453 9.13385 17.5629C9.23086 17.5804 9.32346 17.6169 9.40635 17.6702C9.48925 17.7236 9.56081 17.7928 9.61694 17.8738C9.67308 17.9549 9.71268 18.0462 9.7335 18.1425Z" fill="black"/>
</svg>
