<svg width="22" height="23" viewBox="0 0 22 23" fill="none" xmlns="http://www.w3.org/2000/svg">
<path fill-rule="evenodd" clip-rule="evenodd" d="M11 0C9.07895 0 7.28166 0.575773 5.80603 1.59187L7.25131 3.03714C8.33833 2.37159 9.62605 2 11 2C14.8358 2 18 4.8966 18 9C18 10.123 17.6416 11.3601 16.9201 12.706L18.3887 14.1745C19.4603 12.346 20 10.624 20 9C20 3.75066 15.9029 0 11 0ZM3.12557 4.53983L0.292847 1.70711L1.70706 0.292893L21.7071 20.2929L20.2928 21.7071L16.0176 17.4319C14.8279 18.8154 13.3737 20.2549 11.6577 21.7533L11 22.3276L10.3422 21.7533C4.81126 16.9237 1.99995 12.7068 1.99995 9C1.99995 7.33957 2.40988 5.82909 3.12557 4.53983ZM14.5989 16.0131L4.61678 6.03104C4.22089 6.91564 3.99995 7.91569 3.99995 9C3.99995 11.8492 6.30657 15.4335 11 19.6634C12.4162 18.387 13.6151 17.1695 14.5989 16.0131Z" fill="#C6C6C6"/>
</svg>
