<svg width="34" height="31" viewBox="0 0 34 31" fill="none" xmlns="http://www.w3.org/2000/svg">
<path d="M16.5 13C16.5 14.1935 16.0259 15.3381 15.182 16.182C14.3381 17.0259 13.1935 17.5 12 17.5C10.8065 17.5 9.66193 17.0259 8.81802 16.182C7.97411 15.3381 7.5 14.1935 7.5 13C7.5 11.8065 7.97411 10.6619 8.81802 9.81802C9.66193 8.97411 10.8065 8.5 12 8.5C13.1935 8.5 14.3381 8.97411 15.182 9.81802C16.0259 10.6619 16.5 11.8065 16.5 13Z" fill="#F2994A"/>
<path d="M11.25 13H12.75V26.5C12.75 26.6989 12.671 26.8897 12.5303 27.0303C12.3897 27.171 12.1989 27.25 12 27.25C11.8011 27.25 11.6103 27.171 11.4697 27.0303C11.329 26.8897 11.25 26.6989 11.25 26.5V13Z" fill="#F2994A"/>
<path fill-rule="evenodd" clip-rule="evenodd" d="M9.7335 25.1425C9.77537 25.3368 9.73838 25.5399 9.63066 25.7069C9.52293 25.874 9.35329 25.9915 9.159 26.0335C8.3115 26.218 7.6545 26.4715 7.23 26.7415C6.777 27.0295 6.75 27.223 6.75 27.25C6.75 27.2695 6.7575 27.3775 6.969 27.565C7.179 27.751 7.527 27.955 8.0205 28.138C9.003 28.507 10.41 28.75 12 28.75C13.59 28.75 14.997 28.507 15.9795 28.138C16.473 27.9535 16.8195 27.751 17.031 27.565C17.241 27.3775 17.25 27.2695 17.25 27.25C17.25 27.223 17.223 27.0295 16.77 26.7415C16.3455 26.4715 15.6885 26.2165 14.841 26.0335C14.7429 26.0146 14.6495 25.9762 14.5664 25.9207C14.4833 25.8651 14.4122 25.7936 14.3571 25.7101C14.3021 25.6267 14.2643 25.5331 14.2459 25.4349C14.2276 25.3367 14.229 25.2357 14.2502 25.1381C14.2714 25.0404 14.3119 24.948 14.3693 24.8662C14.4268 24.7844 14.5 24.7149 14.5846 24.6618C14.6693 24.6087 14.7637 24.573 14.8624 24.5569C14.961 24.5408 15.0618 24.5446 15.159 24.568C16.104 24.7735 16.9485 25.078 17.574 25.477C18.174 25.8565 18.75 26.4445 18.75 27.25C18.75 27.853 18.4215 28.336 18.0255 28.687C17.6295 29.0395 17.0985 29.3215 16.506 29.542C15.3165 29.989 13.7235 30.25 12 30.25C10.2765 30.25 8.685 29.989 7.494 29.5435C6.9015 29.3215 6.3705 29.0395 5.9745 28.687C5.5785 28.336 5.25 27.853 5.25 27.25C5.25 26.4445 5.826 25.8565 6.4245 25.477C7.0515 25.078 7.8945 24.772 8.841 24.568C8.93733 24.5471 9.03684 24.5453 9.13385 24.5629C9.23086 24.5804 9.32346 24.6169 9.40635 24.6702C9.48925 24.7236 9.56081 24.7928 9.61694 24.8738C9.67308 24.9549 9.71268 25.0462 9.7335 25.1425Z" fill="#F2994A"/>
<path fill-rule="evenodd" clip-rule="evenodd" d="M26.5 2.5C27.996 2.5 29.279 3.17419 30.1293 4.375H29V5.625H32.125V2.5H30.875V3.29397C29.7968 1.98907 28.2526 1.25 26.5 1.25C23.0482 1.25 20.25 4.04822 20.25 7.5H21.5C21.5 4.73858 23.7386 2.5 26.5 2.5ZM26.5 12.5C25.004 12.5 23.721 11.8258 22.8707 10.625H24V9.375H20.875V12.5H22.125V11.706C23.2032 13.0109 24.7474 13.75 26.5 13.75C29.9518 13.75 32.75 10.9518 32.75 7.5H31.5C31.5 10.2614 29.2614 12.5 26.5 12.5ZM26.5002 9.99897C26.8455 9.99897 27.1254 9.71914 27.1254 9.37397C27.1254 9.02879 26.8455 8.74897 26.5002 8.74897C26.1549 8.74897 25.875 9.02879 25.875 9.37397C25.875 9.71914 26.1549 9.99897 26.5002 9.99897ZM27.1273 4.37397H25.8768V8.12397H27.1273V4.37397Z" fill="#F2994A"/>
</svg>
